{"title":"[img]http://imageshack.us/a/img109/7901/0rmu.jpg[/img]  [img]htt","uid":8892217,"size":910860199,"categoryP":"video","categoryS":"hd___movies","magnet":"?xt=urn:btih:7bc22b6445c351aa5773821f3426d841666a6719&amp;dn=%5Bimg%5Dhttp%3A%2F%2Fimageshack.us%2Fa%2Fimg109%2F7901%2F0rmu.jpg%5B%2Fimg%5D++%5Bimg%5Dhtt&amp;tr=udp%3A%2F%2Ftracker.openbittorrent.com%3A80&amp;tr=udp%3A%2F%2Fopen.demonii.com%3A1337&amp;tr=udp%3A%2F%2Ftracker.coppersurfer.tk%3A6969&amp;tr=udp%3A%2F%2Fexodus.desync.com%3A6969","seeders":0,"leechers":1,"uploader":"jatt13","files":10,"time":1378611032,"description":"[img]http://imageshack.us/a/img109/7901/0rmu.jpg[/img]\n\n[img]http://imageshack.us/a/img547/9746/n3ot.jpg[/img]\n\nimdb   [url]http://www.imdb.com/title/tt3119292/[/url]\n\n[color=black][size=5]Video\nID                             : 0\nFormat                         : xvid\nCodec ID                       : xvid\nDuration                       : 2h 20mn\nBit rate                       : 800 Kbps\nWidth                          : 640 pixels\nHeight                         : 360 pixels\nDisplay aspect ratio           : 16:9\nFrame rate                     : 25.000 fps\nBits/(Pixel*Frame)             : 0.139\nStream size                    : 804 MiB (93%)\n\nAudio\nID                             : 1\nFormat                         : MPEG Audio\nFormat version                 : Version 1\nFormat profile                 : Layer 3\nMode                           : Joint stereo\nMode extension                 : MS Stereo\nCodec ID                       : 55\nCodec ID/Hint                  : MP3\nDuration                       : 2h 20mn\nBit rate mode                  : Constant\nBit rate                       : 48.0 Kbps\nChannel(s)                     : 2 channels\nSampling rate                  : 44.1 KHz\nCompression mode               : Lossy\nStream size                    : 48.3 MiB (6%)\nAlignment                      : Aligned on interleaves\nInterleave, duration           : 26 ms (0.65 video frame)\n\n[/size][/color]\n\n[img]http://imageshack.us/a/img24/7831/he5j.jpg[/img]\n[img]http://imageshack.us/a/img821/6431/64h5.png[/img]\n[img]http://imageshack.us/a/img35/9251/u1sp.png[/img]\n[img]http://imageshack.us/a/img708/1732/1z9e.png[/img]\n[img]http://imageshack.us/a/img90/4463/gxia.png[/img]\n[img]http://imageshack.us/a/img834/3565/qni0.png[/img]","torrent":{"xt":"urn:btih:7bc22b6445c351aa5773821f3426d841666a6719","amp;dn":"%5Bimg%5Dhttp%3A%2F%2Fimageshack.us%2Fa%2Fimg109%2F7901%2F0rmu.jpg%5B%2Fimg%5D++%5Bimg%5Dhtt","amp;tr":["udp%3A%2F%2Ftracker.openbittorrent.com%3A80","udp%3A%2F%2Fopen.demonii.com%3A1337","udp%3A%2F%2Ftracker.coppersurfer.tk%3A6969","udp%3A%2F%2Fexodus.desync.com%3A6969"],"infoHash":"7bc22b6445c351aa5773821f3426d841666a6719","infoHashBuffer":{"type":"Buffer","data":[123,194,43,100,69,195,81,170,87,115,130,31,52,38,216,65,102,106,103,25]},"announce":[],"urlList":[]}}